<svg version="1.2" xmlns="http://www.w3.org/2000/svg" viewBox="0 0 806 800" width="806" height="800">
	<style>
		tspan { white-space:pre } 
		.s0 { fill: #e9f2ec } 
		.s1 { fill: #dc997a } 
		.s2 { fill: #c8e1ea } 
		.s3 { fill: #b4cfd6 } 
		.s4 { fill: #6b441c } 
		.s5 { fill: #000000 } 
		.s6 { mix-blend-mode: multiply;fill: #dc997a } 
		.s7 { fill: none;stroke: #000000;stroke-miterlimit:10;stroke-width: 1.3 } 
		.s8 { mix-blend-mode: multiply;fill: #e5e2fc } 
		.s9 { fill: #3d5365 } 
		.s10 { fill: #e8c436 } 
		.s11 { fill: #73aac3 } 
		.s12 { fill: none;stroke: #000000;stroke-miterlimit:10;stroke-width: 2.7 } 
		.s13 { fill: #563618 } 
		.s14 { fill: #96c4b0 } 
		.s15 { fill: #63987b } 
		.s16 { fill: #507b99 } 
	</style>
	<g id="OBJECTS">
		<g id="&lt;Group&gt;">
			<g id="&lt;Group&gt;">
				<g id="&lt;Group&gt;">
				</g>
			</g>
			<g id="&lt;Group&gt;">
				<g id="&lt;Group&gt;">
					<g id="&lt;Group&gt;">
						<g id="&lt;Group&gt;" style="opacity: .2">
						</g>
						<g id="&lt;Group&gt;">
						</g>
						<g id="&lt;Group&gt;">
						</g>
						<g id="&lt;Group&gt;">
						</g>
						<g id="&lt;Group&gt;">
						</g>
						<text id="" style="transform: matrix(2,0,0,2,-429,280)">
						</text>
						<g id="&lt;Group&gt;">
							<g id="&lt;Group&gt;">
								<path id="&lt;Path&gt;" class="s0" d="m678.4 775.2c7.63-33.28 10.99-67.26 10-101.15-1.05-35.93-7.11-72.12-22.94-105.47-14.42-30.4-41.61-60.61-80.03-64.54-30.63-3.13-59.99 11.43-83.18 28.66-23.19 17.23-43.29 37.86-69.8 51.24-20.72 10.45-48.36 15.59-68.3 4.09-20.21-11.66-24.4-35.07-25.72-55.75-2.22-34.71-1.5-69.66-7.8-104.01-6.3-34.35-20.33-68.75-48.08-94.37-12.75-11.76-28.47-21.56-46.45-26.38-42.84-11.49-90.81 8.05-118.27 38.17-27.47 30.12-38.28 68.66-44.98 106.29-19.11 107.31-10.33 218.12 25.55 322.3z"/>
								<path id="&lt;Path&gt;" class="s0" d="m106.74 224.79c0 27.94 26.75 50.6 59.75 50.6 33 0 59.75-22.66 59.75-50.6 0-27.95-26.75-50.6-59.75-50.6-33 0-59.75 22.65-59.75 50.6z"/>
								<path id="&lt;Path&gt;" class="s0" d="m162.34 129.22c0 10.25 9.82 18.56 21.92 18.56 12.11 0 21.92-8.31 21.92-18.56 0-10.25-9.81-18.56-21.92-18.56-12.1 0-21.92 8.31-21.92 18.56z"/>
							</g>
							<g id="&lt;Group&gt;">
								<path id="&lt;Path&gt;" class="s1" d="m436.78 725.03c-1.53 9.51-3.51 17.9-5.37 27.29-7.01-0.21-13.52-0.4-20.49 0.62q-1.8-12.28-3.16-24.67c9.68 2.89 19.61 1.15 29.02-3.24z"/>
								<path id="&lt;Path&gt;" class="s1" d="m482.17 719.03c1.53 11.56 3.51 21.76 5.38 33.15 7-0.25 13.51-0.47 20.49 0.76q1.79-14.91 3.15-29.97c-9.68 3.51-19.61 1.4-29.02-3.94z"/>
								<g id="&lt;Group&gt;">
									<path id="&lt;Path&gt;" class="s2" d="m468.31 316.98c8.77-1.91 22.44-1.14 30.95 1.35 27.02 7.92 49.58 25.87 60.6 48.21 3.34 6.79 5.65 13.91 7.55 21.1 8.74 33 8.87 67.7 0.4 100.93 15.35-0.65 34.08-0.73 49.42-0.14 17.17-43.5 12.46-91.52-5.43-134.43-10.2-24.48-24.84-47.96-46.16-66.52-21.32-18.56-51.25-30.03-81.88-32.14-1.06 21.16-9.08 41.1-15.45 61.64z"/>
									<path id="&lt;Path&gt;" class="s1" d="m576.62 488.19c-1.41-0.36-4.38 10.97-4.46 12.01-0.74 8.71 8.14 1.3 9.18-3.21-1.66 7.19-7.55 17.46-5.68 24.63 2.99 0.21 4.8-2.6 6.01-4.64q4.03-6.8 6.82-14.02-2.49 7.65-4.97 15.3c-2.61 8.04 5.1 1.6 7.4-1.51 3.15-4.25 5.6-9.01 7.35-13.78q-2.9 7.93-5.81 15.86c-0.15 0.4-0.28 0.88 0.02 1.21 0.36 0.39 1.07 0.32 1.62 0.15 3.05-0.92 5.2-3.83 6.65-6.32 4.63-7.95 8.03-16.42 10.08-25.09-1.11 0.2-1.44-0.27-2.56-0.29q-12.41-0.24-24.81-0.48c-2.6-0.05-4.37 0.83-6.84 0.18z"/>
									<path id="&lt;Path&gt;" class="s3" d="m617.23 488.43l5.16-15.53-51.03-1.26-3.55 16.93c0 0 28.54-0.48 49.42-0.14z"/>
								</g>
								<g id="&lt;Group&gt;">
									<path id="&lt;Path&gt;" class="s1" d="m472.12 193.56c-0.46-4.88-1.61-9.58-3.46-13.82-3.16-7.21-8.61-13.26-16.27-16.44-14.03-5.84-32-0.49-42.58 9.56-14.79 14.04-14.81 36.55-5.26 52.96q2.25 3.88 5.19 7.32 2.69 3.15 5.88 5.75c5.16 4.2 11.68 6.9 18.37 6.64 26.85-1.05 40.33-28.62 38.13-51.97z"/>
									<path id="&lt;Path&gt;" class="s4" d="m421.74 156.22c-3.65 0.28-6.64-1.21-9.24-5.77-1.79-3.14-3.6-6.34-4.63-9.73-0.32-1.07-1.84-1.35-2.57-0.47-1.4 1.7-2.5 3.59-3.05 5.63-0.79 2.94-0.34 6.21 1.66 8.64-4.24-1.96-6.32-5.86-9.14-9.29-1.05-1.28-3.34-0.69-3.48 0.89q0 0.02 0 0.04c-0.28 3.24-0.39 6.54 0.43 9.71 0.82 3.17 2.66 6.23 5.65 8.09-5.18-2.12-9.99-4.97-13.7-8.77-1.04-1.07-2.98-0.65-3.47 0.7-2.69 7.45-1.55 16 3.22 22.58 5.44 7.52 15.43 12.23 25.43 11.98-4.64 1.87-11.16 1.8-15.85 0.06 5.16 5.45 13.57 8.19 21.48 7.25 7.92-0.94 15.14-5.45 19.11-11.65 0.28 2.51-0.31 4.03-2.36 5.76-0.27 0.22-0.58 0.48-0.59 0.81-0.03 0.72 1.16 0.84 1.93 0.65 4.9-1.26 9.04-4.7 10.8-8.98 0.16 2.97-0.59 6-1.69 8.81 3.8-1.59 6.82-4.61 8.17-8.17 1.76 6.46 2.94 12.56 5.95 18.65 3 6.08 7.33 11.79 13.36 15.67 6.47-11.24 8.05-24.52 5.03-36.88-2.36-9.7-7.99-19.05-17.01-24.84-5.07-3.26-11.12-5.09-17.37-5.14-6.4-0.05-11.85 3.29-18.07 3.77z"/>
									<path id="&lt;Path&gt;" class="s5" d="m421.12 205.5c0.09 1.42-0.93 2.63-2.27 2.7-1.35 0.07-2.52-1.03-2.61-2.45-0.09-1.43 0.93-2.64 2.27-2.71 1.35-0.07 2.52 1.03 2.61 2.46z"/>
									<path id="&lt;Path&gt;" class="s5" d="m445.44 205.75c0.09 1.43-0.93 2.64-2.27 2.71-1.35 0.07-2.52-1.03-2.61-2.46-0.09-1.42 0.93-2.63 2.28-2.7 1.34-0.07 2.51 1.03 2.6 2.45z"/>
									<g id="&lt;Group&gt;" style="mix-blend-mode: multiply">
										<g id="&lt;Group&gt;">
											<path id="&lt;Path&gt;" class="s1" d="m430.87 201.4c-1.34 2.87-1.12 6.35-0.29 9.34 0.27 0.99 1.83 0.57 1.54-0.42-0.88-2.99-0.67-5.67-0.47-8.71 0.03-0.4-0.61-0.59-0.78-0.21z"/>
										</g>
									</g>
									<g id="&lt;Group&gt;">
										<g id="&lt;Group&gt;">
											<path id="&lt;Path&gt;" class="s5" d="m422.37 221.15c6.54 3.44 15.23 1.4 19.22-4.92 0.39-0.61-0.55-1.37-1.02-0.79-4.61 5.74-11 7.04-17.91 5.04-0.4-0.12-0.66 0.47-0.29 0.67z"/>
										</g>
									</g>
									<path id="&lt;Path&gt;" class="s6" d="m413.78 213.5c0 1.63-1.98 2.96-4.43 2.96-2.45 0-4.43-1.33-4.43-2.96 0-1.64 1.98-2.97 4.43-2.97 2.45 0 4.43 1.33 4.43 2.97z"/>
									<path id="&lt;Path&gt;" class="s6" d="m456.98 214.32c0 1.63-1.99 2.96-4.43 2.96-2.45 0-4.43-1.33-4.43-2.96 0-1.64 1.98-2.97 4.43-2.97 2.44 0 4.43 1.33 4.43 2.97z"/>
									<path id="&lt;Path&gt;" class="s1" d="m476.79 213.7c0 3.68-3.34 6.67-7.45 6.67-4.12 0-7.45-2.99-7.45-6.67 0-3.69 3.33-6.67 7.45-6.67 4.11 0 7.45 2.98 7.45 6.67z"/>
									<g id="&lt;Group&gt;" style="mix-blend-mode: multiply">
										<g id="&lt;Group&gt;">
											<path id="&lt;Path&gt;" class="s1" d="m471.06 210.04c-2.88 0.91-5.28 3.15-6.04 6.12-0.21 0.82 1.01 1.15 1.25 0.35 0.79-2.63 2.64-4.58 5.06-5.83 0.35-0.18 0.11-0.76-0.27-0.64z"/>
										</g>
									</g>
									<g id="&lt;Group&gt;" style="mix-blend-mode: multiply">
										<g id="&lt;Group&gt;">
											<path id="&lt;Path&gt;" class="s1" d="m468.07 212.28c1.73 1.04 1.38 3.64 1.5 5.37 0.05 0.83 1.36 0.83 1.3 0-0.15-2.15-0.11-5.05-2.33-6.18-0.53-0.28-0.99 0.49-0.47 0.81z"/>
										</g>
									</g>
								</g>
								<path id="&lt;Path&gt;" class="s2" d="m495.6 391.28c6.14-32.23 12.21-64.6 13.48-97.3 0.37-9.72 0.06-20.21-6.25-27.99-7.25-8.92-20.32-11.69-32.35-12.63-19.31-1.49-38.82 0.15-57.78 3.84-10.86 2.11-22.38 5.39-28.97 13.63-3.79 4.74-5.49 10.6-6.8 16.36-8 35.23-4.07 72.69 11.12 105.84 10.9 2.54 21.87 3.32 33.11 3.53 5.81 0.11 11.62-0.1 17.43-0.31 19.38-0.68 38.09-0.97 57.01-4.97z"/>
								<path id="&lt;Path&gt;" class="s1" d="m460.29 233.01c-1.76 6.76-2.47 14.46-2.03 21.38-7.48 8.18-16.29 16.08-24.93 23.29-4.01-5.33-3.15-34.87-5.21-36.96 14.1 4.25 21.43 1.5 32.17-7.71z"/>
								<path id="&lt;Path&gt;" class="s7" d=""/>
								<g id="&lt;Group&gt;" style="mix-blend-mode: multiply">
									<g id="&lt;Group&gt;">
										<path id="&lt;Path&gt;" class="s2" d="m433.04 280.98c-1.57 35.39-2.78 71.56 1.25 106.82 0.07 0.6 0.99 0.63 0.96 0-1.82-35.67-1.29-71.13-0.97-106.82 0-0.8-1.2-0.79-1.24 0z"/>
									</g>
								</g>
								<g id="&lt;Group&gt;">
									<path id="&lt;Path&gt;" class="s2" d="m401.66 267.36c-8.97 0.99-22.45-1.2-30.57-4.55-25.82-10.66-45.92-30.83-53.97-54.16-2.44-7.08-3.82-14.4-4.78-21.74-4.42-33.68-0.07-68.16 12.64-100.29-15.33-0.94-33.95-2.8-49.11-4.98-22.67 41.43-24.2 89.62-11.97 134.09 6.98 25.37 18.48 50.21 37.27 70.85 18.78 20.64 45.33 36.85 75.48 42.12 3.79-20.91 16.02-41.6 25.01-61.34z"/>
									<path id="&lt;Path&gt;" class="s8" d="m384.74 277.11c0 0-21.58 34.73-41.1 40.99 0 0 21.84 9.54 30.87 10.2 0 0-0.35-23.23 10.23-51.19z"/>
									<path id="&lt;Path&gt;" class="s1" d="m316.18 86.08c1.35 0.5 5.76-10.44 5.99-11.47 1.85-8.57-7.93-2.13-9.54 2.24 2.58-6.97 9.76-16.55 8.82-23.87-2.95-0.52-5.1 2.09-6.57 3.98q-4.88 6.34-8.58 13.23 3.46-7.35 6.91-14.69c3.63-7.71-4.85-2.12-7.55 0.74-3.67 3.89-6.72 8.36-9.08 12.92q3.91-7.57 7.82-15.15c0.2-0.38 0.4-0.85 0.14-1.21-0.3-0.42-1.02-0.43-1.59-0.32-3.15 0.6-5.66 3.27-7.42 5.59-5.63 7.43-10.1 15.48-13.25 23.89 1.12-0.09 1.39 0.41 2.5 0.55q12.29 1.52 24.58 3.05c2.58 0.31 4.45-0.37 6.82 0.52z"/>
									<path id="&lt;Path&gt;" class="s3" d="m275.87 81.64l-7.13 14.89 50.53 6.53 5.71-16.44c0 0-28.41-2.48-49.11-4.98z"/>
								</g>
								<g id="&lt;Group&gt;">
									<path id="&lt;Path&gt;" class="s0" d="m530.28 33.29c-35.7 0-64.64 23.42-64.64 52.3 0 2.56-13.09 52.3-13.09 52.3l34.18-13.66c11.49 8.48 26.77 13.66 43.55 13.66 35.7 0 64.65-23.42 64.65-52.3 0-28.88-28.95-52.3-64.65-52.3z"/>
									<g id="&lt;Group&gt;">
										<path id="&lt;Path&gt;" class="s9" d="m532.71 79.07q-0.81-10.55-1.92-21.1c-0.22-2.1-3.34-2.21-3.35 0q-0.04 10.67 0.22 21.32c-6.26 1.85-12.79 3.98-18.62 6.94q-0.11-0.97-0.23-1.94c-0.77-6.37-1.1-13.19-2.86-19.36-0.42-1.49-2.44-1.08-2.58 0.35-0.62 6.83 0.28 14.16 0.65 21.01 0.35 6.56 0.65 13.18 1.54 19.7 0.4 2.87 5.01 2.12 4.99-0.68-0.05-5.16-0.52-10.37-1.09-15.54 6.17-1.29 12.36-3.44 18.36-5.55 0.21 6.31 0.49 12.63 0.92 18.95 0.23 3.39 5.45 3.45 5.33 0q-0.37-10.65-1.15-21.25c0.56-0.89 0.43-2.09-0.21-2.85z"/>
										<path id="&lt;Path&gt;" class="s9" d="m548.65 83.68c-0.18-6.23 0-12.69-1.54-18.77-0.33-1.29-2.36-1.33-2.66 0-1.37 6.11-1.03 12.54-1.04 18.77-0.02 6.78 0.11 13.56 0.19 20.34 0.04 3.48 5.47 3.49 5.42 0-0.11-6.78-0.17-13.56-0.37-20.34z"/>
									</g>
								</g>
								<path id="&lt;Path&gt;" class="s9" d="m495.6 391.28c24.73 108.77 51.3 228.13 43.07 338.88 0.78 0.63-5.69 3.28-6.72 3.51-23.3 5.23-47.37 5.69-71.39 5.39-0.33-85.76-4.36-176.8-15.1-262.01-5.04 85.73-6.74 172.48-1.5 258.2-18.94 3.39-39.26 5.34-58.29 2.35-12.07-58.8-14.4-118.89-13.12-178.67 1.21-55.85 8.07-110.44 15.5-165.9 37.19 0.08 70.48 0.96 107.55-1.75z"/>
								<path id="&lt;Path&gt;" class="s10" d="m385.77 387.8c0 0 54.25 5.32 110.91-2.21l0.49 12.61c0 0-71.94 11.57-110.1 2.17z"/>
								<g id="&lt;Group&gt;" style="mix-blend-mode: multiply">
									<g id="&lt;Group&gt;">
										<path id="&lt;Path&gt;" class="s9" d="m481.6 407.12c0.12 18.7 10.75 35.4 26.53 45.03 0.76 0.46 1.43-0.71 0.69-1.18-15.17-9.67-25.73-25.57-26.19-43.85-0.01-0.66-1.03-0.67-1.03 0z"/>
									</g>
								</g>
								<g id="&lt;Group&gt;" style="mix-blend-mode: multiply">
									<g id="&lt;Group&gt;">
										<path id="&lt;Path&gt;" class="s9" d="m398.77 406.11c2.01 19.43-5.19 37.9-18.47 52-0.63 0.68 0.36 1.67 1.02 1.02 13.98-13.88 21.25-33.38 18.77-53.02-0.1-0.82-1.41-0.85-1.32 0z"/>
									</g>
								</g>
								<g id="&lt;Group&gt;" style="mix-blend-mode: multiply">
									<g id="&lt;Group&gt;">
										<path id="&lt;Path&gt;" class="s9" d="m467.52 719.54c22.34-0.96 44.91-3.62 66.83-8.09 0.88-0.18 0.49-1.48-0.37-1.34-22.09 3.73-44.13 6.58-66.46 8.42-0.64 0.05-0.66 1.04 0 1.01z"/>
									</g>
								</g>
								<g id="&lt;Group&gt;" style="mix-blend-mode: multiply">
									<g id="&lt;Group&gt;">
										<path id="&lt;Path&gt;" class="s9" d="m387.98 724.91c16.22 0.67 32.6 0.88 48.8-0.29 1-0.07 1.02-1.61 0-1.58-16.28 0.47-32.51 1.05-48.8 0.82-0.67-0.01-0.67 1.02 0 1.05z"/>
									</g>
								</g>
								<path id="&lt;Path&gt;" class="s11" d="m432.3 751.79c3.63 5.03 5.14 11.09 4.21 16.89-19.46-0.61-39-0.91-58.45-0.03 0.89-2.48 3.01-4.52 5.28-6.3 8.01-6.28 18.63-10.24 29.62-11.03 6.48-0.48 12.83 0.39 19.34 0.47z"/>
								<path id="&lt;Path&gt;" class="s11" d="m486.65 751.79c-3.63 5.03-5.14 11.09-4.21 16.89 19.46-0.61 39-0.91 58.45-0.03-0.89-2.48-3.01-4.52-5.28-6.3-8.01-6.28-18.63-10.24-29.62-11.03-6.48-0.48-12.83 0.39-19.34 0.47z"/>
								<g id="&lt;Group&gt;" style="mix-blend-mode: multiply">
									<g id="&lt;Group&gt;">
										<g id="&lt;Group&gt;">
											<path id="&lt;Path&gt;" class="s2" d="m456.97 304.2c10.96 0.2 21.95-0.1 32.92-0.18 0.98-0.01 0.98-1.53 0-1.53-10.96 0.06-21.99 0.12-32.92 0.91-0.51 0.04-0.52 0.79 0 0.8z"/>
										</g>
									</g>
									<g id="&lt;Group&gt;">
										<g id="&lt;Group&gt;">
											<path id="&lt;Path&gt;" class="s2" d="m456.74 303.62c-1.02 12.29-0.63 40.38 18.54 38.04 17.11-2.08 18.71-25.24 16.61-38.28-0.18-1.12-1.85-0.63-1.69 0.47 1.66 11.72 0.57 36.27-16.39 36.18-16.82-0.09-16.01-24.84-16.2-36.41-0.01-0.57-0.83-0.56-0.87 0z"/>
										</g>
									</g>
								</g>
								<path id="&lt;Path&gt;" class="s3" d="m458.19 252.83l-24.86 24.85h24.59l-2.08-10.87 22.51-10.12c0 0-8.71-4.06-20.16-3.86z"/>
								<path id="&lt;Path&gt;" class="s3" d="m429.77 254.48c0 0-18.96 2.21-24.85 7.8l13.74 7.54-3.69 9.46 18.36-1.6z"/>
								<path id="&lt;Path&gt;" class="s8" d="m429.14 245.54c0 0 20.53 1.55 27.84-9.83 0 0-4.56 20.18-25.98 26.76 0 0-1.44-5.88-1.86-16.93z"/>
								<g id="&lt;Group&gt;">
									<path id="&lt;Path&gt;" class="s4" d="m618.79 536.9h58.34v99.43h-177v-99.43z"/>
									<path id="&lt;Compound Path&gt;" class="s4" d="m585.62 497.78c-22.93 0-41.52 17.51-41.52 39.12h12.57c0-15.06 12.95-27.27 28.95-27.27 15.98 0 28.94 12.21 28.94 27.27h12.58c0-21.61-18.59-39.12-41.52-39.12z"/>
									<path id="&lt;Path&gt;" class="s12" d=""/>
									<path id="&lt;Path&gt;" class="s13" d="m675.57 575.96h-175.44v-39.06h175.44z"/>
									<path id="&lt;Path&gt;" class="s10" d="m543.01 586.61h-12.28v-18.33h12.28z"/>
									<path id="&lt;Path&gt;" class="s10" d="m647.08 586.61h-12.28v-18.33h12.28z"/>
								</g>
							</g>
							<g id="&lt;Group&gt;">
								<path id="&lt;Path&gt;" class="s14" d="m127.89 604.61q0.14-0.38 0.29-0.76c2.71-7.14 13.39-19.36 21.37-8.86 2.17 2.86 2.75 6.45 3.07 9.9 2.08 22.03-3.36 44.1-8.36 65.54-4.14 17.72-9.11 35.29-14.89 52.64-2.54 7.63-5.08 15.27-8.05 22.79-2.1 5.31-2.82 11.21-5.86 16.22-4.19 6.92-8.37 4.19-9.99-2.17-2.12-8.31-0.28-17.64 0.25-26.05 0.88-14.06 1.52-28.16 2.97-42.19 3.04-29.5 8.63-58.93 19.2-87.06z"/>
								<path id="&lt;Path&gt;" class="s15" d="m53.61 638.36q-0.07-0.33-0.13-0.66c-1.25-6.24 0.73-18.83 10.71-13.4 2.73 1.49 4.68 4.02 6.4 6.53 10.97 16 16.83 34.39 22.72 52.17q7.31 22.06 12.69 44.47c1.58 6.56 3.17 13.14 4.4 19.75 0.88 4.68 2.95 9.36 3.05 14.1 0.14 6.55-3.89 5.8-7.76 1.49-5.04-5.61-7.83-13.24-11.12-19.77-5.51-10.91-11.18-21.77-16.28-32.83-10.72-23.26-19.68-47.26-24.68-71.85z"/>
								<path id="&lt;Path&gt;" class="s15" d="m217.54 668.85q0.32-0.18 0.63-0.36c5.97-3.43 19.71-6.62 17.93 3.72-0.48 2.83-2.34 5.41-4.27 7.79-12.31 15.21-29.02 27.11-45.1 38.8q-19.95 14.5-41 27.55c-6.17 3.82-12.34 7.65-18.69 11.21-4.49 2.52-8.53 6.03-13.38 7.93-6.7 2.63-7.46-1-4.51-5.85 3.86-6.32 10.66-11.55 16.13-16.78 9.14-8.73 18.16-17.59 27.62-26.05 19.88-17.79 41.2-34.39 64.64-47.96z"/>
								<path id="&lt;Path&gt;" class="s14" d="m24.45 691.82q-0.16-0.21-0.33-0.43c-3.12-4.09-6.18-13.69 2.93-12.81 2.49 0.24 4.79 1.46 6.92 2.74 13.58 8.14 24.35 19.53 34.91 30.47q13.11 13.57 24.96 27.97c3.47 4.23 6.95 8.45 10.19 12.81 2.3 3.08 5.45 5.81 7.22 9.17 2.43 4.64-0.73 5.31-5.05 3.4-5.62-2.5-10.34-7.12-15.03-10.79-7.84-6.15-15.79-12.2-23.39-18.58-15.99-13.4-30.97-27.87-43.33-43.95z"/>
								<path id="&lt;Path&gt;" class="s10" d="m93.82 564.89c0 4.23-3.82 7.65-8.54 7.65-4.73 0-8.55-3.42-8.55-7.65 0-4.22 3.82-7.65 8.55-7.65 4.72 0 8.54 3.43 8.54 7.65z"/>
								<g id="&lt;Group&gt;">
									<path id="&lt;Path&gt;" class="s15" d="m85.57 573.44c20.14 57.1 25.9 116.23 19.25 176.27-0.09 0.82 1.32 1.02 1.45 0.2 9.09-58.93 1.25-121.1-19.58-176.78-0.26-0.69-1.37-0.4-1.12 0.31z"/>
								</g>
								<g id="&lt;Group&gt;">
									<path id="&lt;Path&gt;" class="s15" d="m119.07 751.7c20.51-41.29 45.12-80.72 80.95-110.48 0.9-0.75-0.38-2.01-1.28-1.28-36.01 29.54-60.93 69.51-80.75 111.14-0.34 0.71 0.72 1.35 1.08 0.62z"/>
								</g>
								<path id="&lt;Path&gt;" class="s10" d="m195.81 632.6c0 6.38 5.77 11.54 12.89 11.54 7.12 0 12.89-5.16 12.89-11.54 0-6.37-5.77-11.54-12.89-11.54-7.12 0-12.89 5.17-12.89 11.54z"/>
							</g>
							<g id="&lt;Group&gt;">
								<path id="&lt;Path&gt;" class="s14" d="m197.14 655.39q0.1-0.26 0.2-0.52c1.85-4.88 9.16-13.25 14.63-6.06 1.49 1.96 1.88 4.41 2.1 6.78 1.43 15.08-2.3 30.19-5.73 44.87q-4.25 18.21-10.19 36.04c-1.74 5.23-3.47 10.46-5.51 15.61-1.44 3.64-1.93 7.68-4.01 11.11-2.87 4.74-5.73 2.87-6.84-1.49-1.46-5.69-0.19-12.08 0.17-17.83 0.6-9.64 1.04-19.29 2.03-28.89 2.08-20.2 5.91-40.35 13.15-59.62z"/>
								<path id="&lt;Path&gt;" class="s15" d="m146.28 678.51q-0.05-0.23-0.09-0.46c-0.86-4.27 0.5-12.89 7.34-9.17 1.86 1.02 3.2 2.75 4.37 4.47 7.52 10.96 11.53 23.55 15.56 35.72q5.01 15.1 8.69 30.45c1.08 4.49 2.17 8.99 3.02 13.52 0.59 3.21 2.01 6.41 2.08 9.66 0.1 4.48-2.66 3.96-5.31 1.02-3.46-3.85-5.36-9.07-7.62-13.54-3.77-7.47-7.65-14.9-11.14-22.48-7.35-15.92-13.47-32.36-16.9-49.19z"/>
								<path id="&lt;Path&gt;" class="s15" d="m258.52 699.38q0.22-0.12 0.44-0.25c4.08-2.35 13.49-4.53 12.27 2.55-0.33 1.94-1.6 3.7-2.93 5.34-8.42 10.41-19.87 18.56-30.88 26.56q-13.65 9.93-28.07 18.86c-4.22 2.62-8.45 5.25-12.79 7.68-3.08 1.72-5.84 4.13-9.16 5.43-4.59 1.8-5.11-0.68-3.09-4 2.64-4.33 7.3-7.92 11.04-11.49 6.26-5.98 12.44-12.05 18.91-17.84 13.61-12.18 28.21-23.55 44.26-32.84z"/>
								<path id="&lt;Path&gt;" class="s14" d="m126.32 715.11q-0.12-0.15-0.23-0.3c-2.14-2.8-4.24-9.37 2-8.77 1.71 0.17 3.28 1 4.74 1.88 9.3 5.57 16.67 13.37 23.9 20.86q8.98 9.29 17.09 19.16c2.38 2.89 4.77 5.78 6.98 8.76 1.58 2.11 3.74 3.98 4.94 6.28 1.67 3.18-0.5 3.64-3.45 2.33-3.85-1.71-7.09-4.87-10.3-7.39-5.36-4.21-10.8-8.35-16.01-12.72-10.95-9.18-21.21-19.08-29.66-30.09z"/>
								<path id="&lt;Path&gt;" class="s10" d="m173.81 628.2c0 2.89-2.62 5.24-5.85 5.24-3.23 0-5.85-2.35-5.85-5.24 0-2.89 2.62-5.24 5.85-5.24 3.23 0 5.85 2.35 5.85 5.24z"/>
								<g id="&lt;Group&gt;">
									<path id="&lt;Path&gt;" class="s15" d="m168.16 634.05c13.79 39.1 17.73 79.59 13.18 120.7-0.06 0.56 0.91 0.7 1 0.13 6.22-40.35 0.85-82.92-13.41-121.04-0.18-0.47-0.94-0.27-0.77 0.21z"/>
								</g>
								<g id="&lt;Group&gt;">
									<path id="&lt;Path&gt;" class="s15" d="m191.1 756.11c14.04-28.28 30.9-55.27 55.43-75.65 0.62-0.51-0.27-1.38-0.88-0.87-24.66 20.22-41.72 47.59-55.29 76.09-0.23 0.49 0.49 0.93 0.74 0.43z"/>
								</g>
								<path id="&lt;Path&gt;" class="s10" d="m243.64 674.56c0 4.37 3.95 7.9 8.83 7.9 4.88 0 8.83-3.53 8.83-7.9 0-4.36-3.95-7.9-8.83-7.9-4.88 0-8.83 3.54-8.83 7.9z"/>
							</g>
							<g id="&lt;Group&gt;">
								<path id="&lt;Path&gt;" class="s14" d="m707.99 657.71q0.1-0.26 0.2-0.52c1.85-4.89 9.17-13.26 14.63-6.07 1.49 1.96 1.89 4.41 2.11 6.78 1.42 15.08-2.3 30.19-5.73 44.87q-4.25 18.22-10.19 36.04c-1.74 5.23-3.48 10.46-5.51 15.61-1.44 3.64-1.93 7.68-4.02 11.11-2.87 4.74-5.73 2.87-6.84-1.49-1.45-5.69-0.19-12.08 0.17-17.83 0.6-9.63 1.04-19.28 2.03-28.89 2.09-20.2 5.92-40.35 13.15-59.61z"/>
								<path id="&lt;Path&gt;" class="s15" d="m657.13 680.82q-0.04-0.23-0.09-0.46c-0.85-4.27 0.5-12.89 7.34-9.17 1.87 1.02 3.2 2.75 4.38 4.47 7.51 10.96 11.53 23.55 15.56 35.72q5 15.1 8.69 30.45c1.08 4.49 2.16 8.99 3.01 13.52 0.6 3.21 2.02 6.41 2.09 9.66 0.09 4.48-2.67 3.97-5.32 1.02-3.45-3.85-5.36-9.07-7.61-13.54-3.77-7.47-7.66-14.9-11.15-22.48-7.34-15.92-13.47-32.36-16.9-49.19z"/>
								<path id="&lt;Path&gt;" class="s15" d="m769.38 701.69q0.21-0.12 0.43-0.25c4.08-2.34 13.49-4.53 12.28 2.55-0.34 1.94-1.61 3.7-2.93 5.34-8.43 10.41-19.87 18.56-30.88 26.56q-13.66 9.93-28.07 18.86c-4.23 2.62-8.45 5.25-12.8 7.68-3.07 1.73-5.84 4.13-9.16 5.43-4.59 1.8-5.11-0.68-3.09-4 2.64-4.33 7.3-7.92 11.04-11.49 6.27-5.98 12.44-12.05 18.92-17.84 13.61-12.18 28.21-23.55 44.26-32.84z"/>
								<path id="&lt;Path&gt;" class="s14" d="m637.17 717.42q-0.11-0.15-0.23-0.3c-2.14-2.8-4.23-9.37 2.01-8.77 1.7 0.17 3.28 1.01 4.73 1.88 9.3 5.58 16.67 13.37 23.91 20.86q8.97 9.3 17.09 19.16c2.37 2.89 4.76 5.78 6.98 8.76 1.57 2.12 3.73 3.98 4.94 6.28 1.66 3.18-0.5 3.64-3.46 2.33-3.85-1.71-7.08-4.87-10.29-7.39-5.37-4.2-10.81-8.35-16.02-12.72-10.94-9.17-21.2-19.08-29.66-30.09z"/>
								<path id="&lt;Path&gt;" class="s10" d="m684.67 630.51c0 2.9-2.62 5.24-5.86 5.24-3.23 0-5.85-2.34-5.85-5.24 0-2.89 2.62-5.24 5.85-5.24 3.24 0 5.86 2.35 5.86 5.24z"/>
								<g id="&lt;Group&gt;">
									<path id="&lt;Path&gt;" class="s15" d="m679.02 636.36c13.79 39.1 17.73 79.59 13.18 120.7-0.07 0.56 0.9 0.7 0.99 0.13 6.22-40.35 0.86-82.92-13.41-121.04-0.17-0.47-0.93-0.27-0.76 0.21z"/>
								</g>
								<g id="&lt;Group&gt;">
									<path id="&lt;Path&gt;" class="s15" d="m701.95 758.42c14.05-28.27 30.9-55.27 55.43-75.65 0.62-0.51-0.26-1.37-0.87-0.87-24.66 20.22-41.73 47.59-55.3 76.09-0.23 0.49 0.5 0.93 0.74 0.43z"/>
								</g>
								<path id="&lt;Path&gt;" class="s10" d="m754.5 676.87c0 4.37 3.95 7.91 8.82 7.91 4.88 0 8.83-3.54 8.83-7.91 0-4.36-3.95-7.9-8.83-7.9-4.87 0-8.82 3.54-8.82 7.9z"/>
							</g>
							<path id="&lt;Path&gt;" class="s16" d="m729.52 776.82h-680.99v-11.15h680.99z"/>
						</g>
					</g>
				</g>
			</g>
		</g>
	</g>
</svg>